<svg xmlns="http://www.w3.org/2000/svg" viewBox="0 0 512 512" width="512" height="512">
  <defs>
    <linearGradient id="bg" x1="0" y1="0" x2="1" y2="1">
      <stop offset="0" stop-color="#ffb24d"/>
      <stop offset="0.5" stop-color="#ff6a13"/>
      <stop offset="1" stop-color="#ff3d54"/>
    </linearGradient>
    <linearGradient id="fl" x1="0" y1="0" x2="0" y2="1">
      <stop offset="0" stop-color="#fff7ef"/>
      <stop offset="1" stop-color="#ffd9b0"/>
    </linearGradient>
  </defs>
  <rect width="512" height="512" fill="url(#bg)"/>
  <path d="M256 132c34 78-56 100-56 176a56 56 0 0 0 112 8C312 234 264 206 256 132z" fill="url(#fl)"/>
  <path d="M168 312a88 88 0 0 0 176 0c0-53-36-72-46-107 4 47-36 58-36 93a41 41 0 0 1-80 11c-11-19-14-6-14 2z" fill="#fff7ef" opacity="0.5"/>
</svg>
