<svg xmlns="http://www.w3.org/2000/svg" viewBox="0 0 512 512" width="512" height="512">
  <defs>
    <linearGradient id="bg" x1="0" y1="0" x2="1" y2="1">
      <stop offset="0" stop-color="#ffb24d"/>
      <stop offset="0.5" stop-color="#ff6a13"/>
      <stop offset="1" stop-color="#ff3d54"/>
    </linearGradient>
    <linearGradient id="fl" x1="0" y1="0" x2="0" y2="1">
      <stop offset="0" stop-color="#fff7ef"/>
      <stop offset="1" stop-color="#ffd9b0"/>
    </linearGradient>
  </defs>
  <rect width="512" height="512" rx="118" fill="url(#bg)"/>
  <path d="M256 92c40 92-66 118-66 208a66 66 0 0 0 132 9C338 217 266 184 256 92z" fill="url(#fl)"/>
  <path d="M150 300a106 106 0 0 0 212 0c0-64-43-86-55-128 5 56-43 70-43 112a49 49 0 0 1-96 13c-13-23-18-7-18 3z" fill="#fff7ef" opacity="0.5"/>
</svg>
